<?xml version="1.0" encoding="UTF-8"?>
<svg xmlns="http://www.w3.org/2000/svg" xmlns:xlink="http://www.w3.org/1999/xlink" width="100px" height="64px" viewBox="0 0 300 300" version="1.1">
<g id="surface1">
<path style=" stroke:none;fill-rule:evenodd;fill:rgb(92.54902%,92.54902%,92.54902%);fill-opacity:1;" d="M 81.5 125.851562 L 81.5 136 L 85.75 136 L 85.75 129.078125 L 88.699219 128.929688 C 94.453125 128.636719 97.003906 126.648438 96.996094 122.445312 C 96.988281 117.539062 94.488281 115.925781 86.6875 115.792969 L 81.5 115.707031 L 81.5 125.851562 M 100 125.851562 L 100 136 L 104.25 136 L 104.25 129.078125 L 107.203125 128.929688 C 112.953125 128.636719 115.503906 126.648438 115.496094 122.445312 C 115.492188 117.539062 112.984375 115.925781 105.1875 115.792969 L 100 115.707031 L 100 125.851562 M 118.5 125.875 L 118.5 136 L 131.5 136 L 131.5 132.75 L 122.75 132.75 L 122.75 115.75 L 118.5 115.75 L 118.5 125.875 M 139.835938 116.3125 C 139.914062 116.621094 140.882812 120.980469 141.996094 126 C 143.109375 131.019531 144.078125 135.320312 144.152344 135.5625 C 144.261719 135.933594 144.601562 136 146.367188 136 L 148.453125 136 L 150.023438 129.5 C 150.886719 125.925781 151.660156 123 151.734375 123 C 151.8125 123 152.53125 125.730469 153.332031 129.0625 C 154.132812 132.398438 154.84375 135.320312 154.910156 135.5625 C 155.125 136.320312 159.191406 136.203125 159.371094 135.4375 C 159.445312 135.128906 160.402344 130.824219 161.496094 125.875 C 162.59375 120.925781 163.550781 116.621094 163.625 116.3125 C 163.757812 115.761719 163.710938 115.75 161.660156 115.75 L 159.558594 115.75 L 158.769531 119.9375 C 157.203125 128.222656 156.898438 129.730469 156.808594 129.640625 C 156.757812 129.589844 156.042969 126.640625 155.226562 123.085938 C 154.40625 119.53125 153.675781 116.429688 153.601562 116.1875 C 153.488281 115.828125 153.167969 115.75 151.75 115.75 C 150.332031 115.75 150.011719 115.828125 149.898438 116.1875 C 149.824219 116.429688 149.085938 119.542969 148.253906 123.105469 C 147.421875 126.671875 146.707031 129.628906 146.65625 129.675781 C 146.609375 129.722656 146.214844 127.875 145.777344 125.570312 C 145.339844 123.261719 144.738281 120.109375 144.4375 118.5625 L 143.898438 115.75 L 141.796875 115.75 C 139.742188 115.75 139.699219 115.761719 139.835938 116.3125 M 91.257812 119.628906 C 92.203125 120.117188 92.75 121.191406 92.75 122.558594 C 92.75 124.726562 91.503906 125.5 88.007812 125.5 L 85.75 125.5 L 85.75 119.25 L 88.136719 119.25 C 89.78125 119.25 90.753906 119.367188 91.257812 119.628906 M 109.757812 119.628906 C 110.703125 120.117188 111.25 121.191406 111.25 122.558594 C 111.25 124.726562 110 125.5 106.507812 125.5 L 104.25 125.5 L 104.25 119.25 L 106.636719 119.25 C 108.28125 119.25 109.253906 119.367188 109.757812 119.628906 M 168.550781 121.222656 C 166.675781 121.871094 165 123.648438 165 124.992188 C 165 125.683594 168.683594 125.277344 169.460938 124.5 C 171.058594 122.90625 173.5 123.859375 173.5 126.078125 C 173.5 126.664062 173.433594 126.683594 171.164062 126.804688 C 166.726562 127.035156 164.875 128.460938 164.875 131.644531 C 164.875 135.449219 169.484375 137.695312 172.65625 135.433594 L 173.625 134.746094 L 173.761719 135.308594 C 173.886719 135.832031 174.050781 135.878906 175.980469 135.949219 C 178.054688 136.019531 178.0625 136.019531 177.871094 135.449219 C 177.765625 135.132812 177.609375 132.511719 177.527344 129.625 C 177.363281 123.996094 177.320312 123.789062 175.914062 122.304688 C 174.488281 120.800781 171.179688 120.316406 168.550781 121.222656 M 186.125 121.203125 C 185.710938 121.460938 185.207031 121.875 185 122.125 C 184.644531 122.550781 184.617188 122.535156 184.5 121.851562 C 184.371094 121.132812 184.355469 121.125 182.4375 121.050781 L 180.5 120.980469 L 180.5 136 L 184.5 136 L 184.5 131.140625 C 184.5 125.15625 184.582031 124.972656 187.351562 124.796875 L 189.019531 124.691406 L 188.949219 122.78125 L 188.875 120.875 L 187.875 120.808594 C 187.234375 120.761719 186.605469 120.90625 186.125 121.203125 M 193.578125 121.382812 C 188.875 123.726562 189.070312 133.601562 193.859375 135.777344 C 195.59375 136.566406 198 136.253906 199.304688 135.078125 C 199.730469 134.691406 199.75 134.828125 199.75 138.210938 L 199.75 141.75 L 203.75 141.75 L 203.75 121 L 200.238281 121 L 199.933594 122.523438 L 199.398438 122.023438 C 197.9375 120.648438 195.574219 120.386719 193.578125 121.382812 M 210.085938 121.09375 C 204.503906 122.917969 205.496094 128.460938 211.65625 129.890625 C 214.484375 130.546875 215.390625 131.304688 214.761719 132.480469 C 213.96875 133.960938 210 133.320312 210 131.710938 C 210 131.300781 209.777344 131.25 208 131.25 C 205.765625 131.25 205.667969 131.351562 206.402344 132.894531 C 208.867188 138.089844 218.75 137.011719 218.75 131.550781 C 218.75 129.238281 217.203125 127.859375 213.75 127.097656 C 210.578125 126.398438 209.609375 125.382812 210.957031 124.164062 C 212.011719 123.210938 214.75 123.90625 214.75 125.125 C 214.75 125.429688 215.144531 125.5 216.78125 125.5 L 218.816406 125.5 L 218.671875 124.601562 C 218.207031 121.746094 213.710938 119.910156 210.085938 121.09375 M 199.140625 124.765625 C 199.722656 125.3125 199.75 125.472656 199.75 128.5 C 199.75 132.175781 199.476562 132.703125 197.453125 132.929688 C 194.9375 133.210938 193.484375 129.894531 194.507812 126.203125 C 195.089844 124.113281 197.613281 123.328125 199.140625 124.765625 M 28.5 125.914062 C 24.648438 127.457031 26.160156 133.3125 30.335938 133.035156 C 34.816406 132.738281 34.792969 126.058594 30.3125 125.835938 C 29.523438 125.796875 28.707031 125.832031 28.5 125.914062 M 268.5 125.914062 C 264.648438 127.457031 266.160156 133.3125 270.335938 133.035156 C 274.816406 132.738281 274.792969 126.058594 270.3125 125.835938 C 269.523438 125.796875 268.707031 125.832031 268.5 125.914062 M 37.5 129.375 L 37.5 131.25 L 69.5 131.25 L 69.5 127.5 L 37.5 127.5 L 37.5 129.375 M 230.5 129.375 L 230.5 131.25 L 262.5 131.25 L 262.5 127.5 L 230.5 127.5 L 230.5 129.375 M 173.453125 130.101562 C 173.664062 132.660156 171 134.199219 169.1875 132.566406 C 168.230469 131.707031 168.953125 129.679688 170.320312 129.386719 C 170.625 129.324219 171.101562 129.21875 171.375 129.160156 C 172.832031 128.832031 173.371094 129.078125 173.453125 130.101562 M 141.777344 166.597656 L 133.679688 174.699219 L 134.203125 175.433594 C 135.414062 177.132812 134.867188 177.503906 142.765625 169.609375 L 150 162.378906 L 157.234375 169.609375 C 165.132812 177.503906 164.585938 177.132812 165.796875 175.433594 L 166.320312 174.699219 L 158.222656 166.597656 C 153.769531 162.144531 150.070312 158.5 150 158.5 C 149.929688 158.5 146.230469 162.144531 141.777344 166.597656 M 143.558594 171.3125 L 137.25 177.628906 L 137.25 188.515625 L 144.375 188.375 L 144.5 183.875 C 144.621094 179.523438 144.648438 179.34375 145.28125 178.425781 C 147.265625 175.554688 150.941406 174.992188 153.484375 177.167969 C 155.242188 178.671875 155.359375 179.078125 155.5 184 L 155.625 188.375 L 162.75 188.515625 L 162.75 177.628906 L 156.441406 171.3125 C 152.96875 167.839844 150.070312 165 150 165 C 149.929688 165 147.03125 167.839844 143.558594 171.3125 "/>
<path style=" stroke:none;fill-rule:evenodd;fill:rgb(94.117647%,92.54902%,92.54902%);fill-opacity:1;" d="M 188.996094 122.199219 L 189.117188 123.625 L 189.199219 122.402344 C 189.242188 121.730469 189.1875 121.089844 189.078125 120.976562 C 188.964844 120.863281 188.929688 121.414062 188.996094 122.199219 M 97.0625 122.375 C 97.066406 122.925781 97.117188 123.121094 97.175781 122.808594 C 97.238281 122.5 97.234375 122.046875 97.171875 121.808594 C 97.109375 121.570312 97.058594 121.824219 97.0625 122.375 M 115.5625 122.375 C 115.566406 122.925781 115.617188 123.121094 115.675781 122.808594 C 115.734375 122.5 115.734375 122.046875 115.671875 121.808594 C 115.609375 121.570312 115.558594 121.824219 115.5625 122.375 M 218.75 125.207031 C 218.75 125.402344 218.0625 125.515625 216.6875 125.550781 L 214.625 125.601562 L 216.601562 125.6875 C 218.429688 125.765625 219.359375 125.527344 218.921875 125.085938 C 218.828125 124.992188 218.75 125.046875 218.75 125.207031 M 173.308594 126 C 173.308594 126.480469 173.359375 126.679688 173.421875 126.4375 C 173.484375 126.195312 173.484375 125.804688 173.421875 125.5625 C 173.359375 125.320312 173.308594 125.519531 173.308594 126 M 199.597656 128.5 C 199.597656 130.355469 199.636719 131.117188 199.683594 130.1875 C 199.734375 129.257812 199.734375 127.742188 199.683594 126.8125 C 199.636719 125.882812 199.597656 126.644531 199.597656 128.5 M 29.5625 125.671875 C 29.804688 125.734375 30.195312 125.734375 30.4375 125.671875 C 30.679688 125.609375 30.480469 125.558594 30 125.558594 C 29.519531 125.558594 29.320312 125.609375 29.5625 125.671875 M 269.5625 125.671875 C 269.804688 125.734375 270.195312 125.734375 270.4375 125.671875 C 270.679688 125.609375 270.480469 125.558594 270 125.558594 C 269.519531 125.558594 269.320312 125.609375 269.5625 125.671875 M 184.605469 131.125 C 184.605469 133.875 184.640625 135.035156 184.6875 133.699219 C 184.730469 132.367188 184.730469 130.117188 184.6875 128.699219 C 184.640625 127.285156 184.605469 128.375 184.605469 131.125 M 190.078125 128.375 C 190.078125 129.199219 190.125 129.507812 190.179688 129.058594 C 190.238281 128.609375 190.234375 127.933594 190.179688 127.558594 C 190.121094 127.183594 190.078125 127.550781 190.078125 128.375 M 172.488281 129.140625 C 173.167969 129.269531 173.230469 129.375 173.320312 130.515625 L 173.417969 131.753906 L 173.398438 130.4375 C 173.375 129.140625 173.363281 129.125 172.5625 129.0625 C 171.785156 129.003906 171.78125 129.007812 172.488281 129.140625 M 218.8125 131.625 C 218.816406 132.175781 218.867188 132.371094 218.925781 132.058594 C 218.988281 131.75 218.984375 131.296875 218.921875 131.058594 C 218.859375 130.820312 218.808594 131.074219 218.8125 131.625 M 206.945312 131.183594 C 207.53125 131.238281 208.433594 131.234375 208.945312 131.183594 C 209.457031 131.128906 208.976562 131.085938 207.875 131.085938 C 206.773438 131.085938 206.355469 131.128906 206.945312 131.183594 M 127.050781 132.6875 L 131.476562 132.761719 L 131.566406 134.445312 L 131.652344 136.125 L 131.699219 134.3125 L 131.75 132.5 L 127.1875 132.554688 L 122.625 132.613281 L 127.050781 132.6875 M 191.5 134.078125 C 191.5 134.121094 191.867188 134.488281 192.3125 134.890625 L 193.125 135.625 L 192.390625 134.8125 C 191.707031 134.054688 191.5 133.882812 191.5 134.078125 M 199.453125 134.9375 C 199.410156 135.039062 199.4375 136.644531 199.511719 138.5 L 199.648438 141.875 L 199.699219 138.3125 C 199.746094 135.105469 199.691406 134.359375 199.453125 134.9375 M 141.628906 166.496094 C 133.609375 174.519531 133.398438 174.753906 133.867188 175.183594 C 134.328125 175.605469 134.332031 175.605469 134.003906 175.171875 C 133.691406 174.753906 134.371094 174.003906 141.832031 166.546875 L 150 158.375 L 158.167969 166.546875 C 165.628906 174.003906 166.308594 174.753906 165.996094 175.171875 C 165.667969 175.605469 165.671875 175.605469 166.132812 175.183594 C 166.601562 174.753906 166.390625 174.519531 158.371094 166.496094 C 153.835938 161.960938 150.070312 158.25 150 158.25 C 149.929688 158.25 146.164062 161.960938 141.628906 166.496094 M 149.5625 175.921875 C 149.804688 175.984375 150.195312 175.984375 150.4375 175.921875 C 150.679688 175.859375 150.480469 175.808594 150 175.808594 C 149.519531 175.808594 149.320312 175.859375 149.5625 175.921875 "/>
<path style=" stroke:none;fill-rule:evenodd;fill:rgb(94.117647%,92.54902%,92.54902%);fill-opacity:1;" d="M 188.996094 122.199219 L 189.117188 123.625 L 189.199219 122.402344 C 189.242188 121.730469 189.1875 121.089844 189.078125 120.976562 C 188.964844 120.863281 188.929688 121.414062 188.996094 122.199219 M 97.0625 122.375 C 97.066406 122.925781 97.117188 123.121094 97.175781 122.808594 C 97.238281 122.5 97.234375 122.046875 97.171875 121.808594 C 97.109375 121.570312 97.058594 121.824219 97.0625 122.375 M 115.5625 122.375 C 115.566406 122.925781 115.617188 123.121094 115.675781 122.808594 C 115.734375 122.5 115.734375 122.046875 115.671875 121.808594 C 115.609375 121.570312 115.558594 121.824219 115.5625 122.375 M 218.75 125.207031 C 218.75 125.402344 218.0625 125.515625 216.6875 125.550781 L 214.625 125.601562 L 216.601562 125.6875 C 218.429688 125.765625 219.359375 125.527344 218.921875 125.085938 C 218.828125 124.992188 218.75 125.046875 218.75 125.207031 M 173.308594 126 C 173.308594 126.480469 173.359375 126.679688 173.421875 126.4375 C 173.484375 126.195312 173.484375 125.804688 173.421875 125.5625 C 173.359375 125.320312 173.308594 125.519531 173.308594 126 M 199.597656 128.5 C 199.597656 130.355469 199.636719 131.117188 199.683594 130.1875 C 199.734375 129.257812 199.734375 127.742188 199.683594 126.8125 C 199.636719 125.882812 199.597656 126.644531 199.597656 128.5 M 29.5625 125.671875 C 29.804688 125.734375 30.195312 125.734375 30.4375 125.671875 C 30.679688 125.609375 30.480469 125.558594 30 125.558594 C 29.519531 125.558594 29.320312 125.609375 29.5625 125.671875 M 269.5625 125.671875 C 269.804688 125.734375 270.195312 125.734375 270.4375 125.671875 C 270.679688 125.609375 270.480469 125.558594 270 125.558594 C 269.519531 125.558594 269.320312 125.609375 269.5625 125.671875 M 184.605469 131.125 C 184.605469 133.875 184.640625 135.035156 184.6875 133.699219 C 184.730469 132.367188 184.730469 130.117188 184.6875 128.699219 C 184.640625 127.285156 184.605469 128.375 184.605469 131.125 M 190.078125 128.375 C 190.078125 129.199219 190.125 129.507812 190.179688 129.058594 C 190.238281 128.609375 190.234375 127.933594 190.179688 127.558594 C 190.121094 127.183594 190.078125 127.550781 190.078125 128.375 M 172.488281 129.140625 C 173.167969 129.269531 173.230469 129.375 173.320312 130.515625 L 173.417969 131.753906 L 173.398438 130.4375 C 173.375 129.140625 173.363281 129.125 172.5625 129.0625 C 171.785156 129.003906 171.78125 129.007812 172.488281 129.140625 M 218.8125 131.625 C 218.816406 132.175781 218.867188 132.371094 218.925781 132.058594 C 218.988281 131.75 218.984375 131.296875 218.921875 131.058594 C 218.859375 130.820312 218.808594 131.074219 218.8125 131.625 M 206.945312 131.183594 C 207.53125 131.238281 208.433594 131.234375 208.945312 131.183594 C 209.457031 131.128906 208.976562 131.085938 207.875 131.085938 C 206.773438 131.085938 206.355469 131.128906 206.945312 131.183594 M 127.050781 132.6875 L 131.476562 132.761719 L 131.566406 134.445312 L 131.652344 136.125 L 131.699219 134.3125 L 131.75 132.5 L 127.1875 132.554688 L 122.625 132.613281 L 127.050781 132.6875 M 191.5 134.078125 C 191.5 134.121094 191.867188 134.488281 192.3125 134.890625 L 193.125 135.625 L 192.390625 134.8125 C 191.707031 134.054688 191.5 133.882812 191.5 134.078125 M 199.453125 134.9375 C 199.410156 135.039062 199.4375 136.644531 199.511719 138.5 L 199.648438 141.875 L 199.699219 138.3125 C 199.746094 135.105469 199.691406 134.359375 199.453125 134.9375 M 141.628906 166.496094 C 133.609375 174.519531 133.398438 174.753906 133.867188 175.183594 C 134.328125 175.605469 134.332031 175.605469 134.003906 175.171875 C 133.691406 174.753906 134.371094 174.003906 141.832031 166.546875 L 150 158.375 L 158.167969 166.546875 C 165.628906 174.003906 166.308594 174.753906 165.996094 175.171875 C 165.667969 175.605469 165.671875 175.605469 166.132812 175.183594 C 166.601562 174.753906 166.390625 174.519531 158.371094 166.496094 C 153.835938 161.960938 150.070312 158.25 150 158.25 C 149.929688 158.25 146.164062 161.960938 141.628906 166.496094 M 149.5625 175.921875 C 149.804688 175.984375 150.195312 175.984375 150.4375 175.921875 C 150.679688 175.859375 150.480469 175.808594 150 175.808594 C 149.519531 175.808594 149.320312 175.859375 149.5625 175.921875 "/>
<path style=" stroke:none;fill-rule:evenodd;fill:rgb(94.117647%,92.54902%,92.54902%);fill-opacity:1;" d="M 188.996094 122.199219 L 189.117188 123.625 L 189.199219 122.402344 C 189.242188 121.730469 189.1875 121.089844 189.078125 120.976562 C 188.964844 120.863281 188.929688 121.414062 188.996094 122.199219 M 97.0625 122.375 C 97.066406 122.925781 97.117188 123.121094 97.175781 122.808594 C 97.238281 122.5 97.234375 122.046875 97.171875 121.808594 C 97.109375 121.570312 97.058594 121.824219 97.0625 122.375 M 115.5625 122.375 C 115.566406 122.925781 115.617188 123.121094 115.675781 122.808594 C 115.734375 122.5 115.734375 122.046875 115.671875 121.808594 C 115.609375 121.570312 115.558594 121.824219 115.5625 122.375 M 218.75 125.207031 C 218.75 125.402344 218.0625 125.515625 216.6875 125.550781 L 214.625 125.601562 L 216.601562 125.6875 C 218.429688 125.765625 219.359375 125.527344 218.921875 125.085938 C 218.828125 124.992188 218.75 125.046875 218.75 125.207031 M 173.308594 126 C 173.308594 126.480469 173.359375 126.679688 173.421875 126.4375 C 173.484375 126.195312 173.484375 125.804688 173.421875 125.5625 C 173.359375 125.320312 173.308594 125.519531 173.308594 126 M 199.597656 128.5 C 199.597656 130.355469 199.636719 131.117188 199.683594 130.1875 C 199.734375 129.257812 199.734375 127.742188 199.683594 126.8125 C 199.636719 125.882812 199.597656 126.644531 199.597656 128.5 M 29.5625 125.671875 C 29.804688 125.734375 30.195312 125.734375 30.4375 125.671875 C 30.679688 125.609375 30.480469 125.558594 30 125.558594 C 29.519531 125.558594 29.320312 125.609375 29.5625 125.671875 M 269.5625 125.671875 C 269.804688 125.734375 270.195312 125.734375 270.4375 125.671875 C 270.679688 125.609375 270.480469 125.558594 270 125.558594 C 269.519531 125.558594 269.320312 125.609375 269.5625 125.671875 M 184.605469 131.125 C 184.605469 133.875 184.640625 135.035156 184.6875 133.699219 C 184.730469 132.367188 184.730469 130.117188 184.6875 128.699219 C 184.640625 127.285156 184.605469 128.375 184.605469 131.125 M 190.078125 128.375 C 190.078125 129.199219 190.125 129.507812 190.179688 129.058594 C 190.238281 128.609375 190.234375 127.933594 190.179688 127.558594 C 190.121094 127.183594 190.078125 127.550781 190.078125 128.375 M 172.488281 129.140625 C 173.167969 129.269531 173.230469 129.375 173.320312 130.515625 L 173.417969 131.753906 L 173.398438 130.4375 C 173.375 129.140625 173.363281 129.125 172.5625 129.0625 C 171.785156 129.003906 171.78125 129.007812 172.488281 129.140625 M 218.8125 131.625 C 218.816406 132.175781 218.867188 132.371094 218.925781 132.058594 C 218.988281 131.75 218.984375 131.296875 218.921875 131.058594 C 218.859375 130.820312 218.808594 131.074219 218.8125 131.625 M 206.945312 131.183594 C 207.53125 131.238281 208.433594 131.234375 208.945312 131.183594 C 209.457031 131.128906 208.976562 131.085938 207.875 131.085938 C 206.773438 131.085938 206.355469 131.128906 206.945312 131.183594 M 127.050781 132.6875 L 131.476562 132.761719 L 131.566406 134.445312 L 131.652344 136.125 L 131.699219 134.3125 L 131.75 132.5 L 127.1875 132.554688 L 122.625 132.613281 L 127.050781 132.6875 M 191.5 134.078125 C 191.5 134.121094 191.867188 134.488281 192.3125 134.890625 L 193.125 135.625 L 192.390625 134.8125 C 191.707031 134.054688 191.5 133.882812 191.5 134.078125 M 199.453125 134.9375 C 199.410156 135.039062 199.4375 136.644531 199.511719 138.5 L 199.648438 141.875 L 199.699219 138.3125 C 199.746094 135.105469 199.691406 134.359375 199.453125 134.9375 M 141.628906 166.496094 C 133.609375 174.519531 133.398438 174.753906 133.867188 175.183594 C 134.328125 175.605469 134.332031 175.605469 134.003906 175.171875 C 133.691406 174.753906 134.371094 174.003906 141.832031 166.546875 L 150 158.375 L 158.167969 166.546875 C 165.628906 174.003906 166.308594 174.753906 165.996094 175.171875 C 165.667969 175.605469 165.671875 175.605469 166.132812 175.183594 C 166.601562 174.753906 166.390625 174.519531 158.371094 166.496094 C 153.835938 161.960938 150.070312 158.25 150 158.25 C 149.929688 158.25 146.164062 161.960938 141.628906 166.496094 M 149.5625 175.921875 C 149.804688 175.984375 150.195312 175.984375 150.4375 175.921875 C 150.679688 175.859375 150.480469 175.808594 150 175.808594 C 149.519531 175.808594 149.320312 175.859375 149.5625 175.921875 "/>
<path style=" stroke:none;fill-rule:evenodd;fill:rgb(94.117647%,92.54902%,92.54902%);fill-opacity:1;" d="M 188.996094 122.199219 L 189.117188 123.625 L 189.199219 122.402344 C 189.242188 121.730469 189.1875 121.089844 189.078125 120.976562 C 188.964844 120.863281 188.929688 121.414062 188.996094 122.199219 M 97.0625 122.375 C 97.066406 122.925781 97.117188 123.121094 97.175781 122.808594 C 97.238281 122.5 97.234375 122.046875 97.171875 121.808594 C 97.109375 121.570312 97.058594 121.824219 97.0625 122.375 M 115.5625 122.375 C 115.566406 122.925781 115.617188 123.121094 115.675781 122.808594 C 115.734375 122.5 115.734375 122.046875 115.671875 121.808594 C 115.609375 121.570312 115.558594 121.824219 115.5625 122.375 M 218.75 125.207031 C 218.75 125.402344 218.0625 125.515625 216.6875 125.550781 L 214.625 125.601562 L 216.601562 125.6875 C 218.429688 125.765625 219.359375 125.527344 218.921875 125.085938 C 218.828125 124.992188 218.75 125.046875 218.75 125.207031 M 173.308594 126 C 173.308594 126.480469 173.359375 126.679688 173.421875 126.4375 C 173.484375 126.195312 173.484375 125.804688 173.421875 125.5625 C 173.359375 125.320312 173.308594 125.519531 173.308594 126 M 199.597656 128.5 C 199.597656 130.355469 199.636719 131.117188 199.683594 130.1875 C 199.734375 129.257812 199.734375 127.742188 199.683594 126.8125 C 199.636719 125.882812 199.597656 126.644531 199.597656 128.5 M 29.5625 125.671875 C 29.804688 125.734375 30.195312 125.734375 30.4375 125.671875 C 30.679688 125.609375 30.480469 125.558594 30 125.558594 C 29.519531 125.558594 29.320312 125.609375 29.5625 125.671875 M 269.5625 125.671875 C 269.804688 125.734375 270.195312 125.734375 270.4375 125.671875 C 270.679688 125.609375 270.480469 125.558594 270 125.558594 C 269.519531 125.558594 269.320312 125.609375 269.5625 125.671875 M 184.605469 131.125 C 184.605469 133.875 184.640625 135.035156 184.6875 133.699219 C 184.730469 132.367188 184.730469 130.117188 184.6875 128.699219 C 184.640625 127.285156 184.605469 128.375 184.605469 131.125 M 190.078125 128.375 C 190.078125 129.199219 190.125 129.507812 190.179688 129.058594 C 190.238281 128.609375 190.234375 127.933594 190.179688 127.558594 C 190.121094 127.183594 190.078125 127.550781 190.078125 128.375 M 172.488281 129.140625 C 173.167969 129.269531 173.230469 129.375 173.320312 130.515625 L 173.417969 131.753906 L 173.398438 130.4375 C 173.375 129.140625 173.363281 129.125 172.5625 129.0625 C 171.785156 129.003906 171.78125 129.007812 172.488281 129.140625 M 218.8125 131.625 C 218.816406 132.175781 218.867188 132.371094 218.925781 132.058594 C 218.988281 131.75 218.984375 131.296875 218.921875 131.058594 C 218.859375 130.820312 218.808594 131.074219 218.8125 131.625 M 206.945312 131.183594 C 207.53125 131.238281 208.433594 131.234375 208.945312 131.183594 C 209.457031 131.128906 208.976562 131.085938 207.875 131.085938 C 206.773438 131.085938 206.355469 131.128906 206.945312 131.183594 M 127.050781 132.6875 L 131.476562 132.761719 L 131.566406 134.445312 L 131.652344 136.125 L 131.699219 134.3125 L 131.75 132.5 L 127.1875 132.554688 L 122.625 132.613281 L 127.050781 132.6875 M 191.5 134.078125 C 191.5 134.121094 191.867188 134.488281 192.3125 134.890625 L 193.125 135.625 L 192.390625 134.8125 C 191.707031 134.054688 191.5 133.882812 191.5 134.078125 M 199.453125 134.9375 C 199.410156 135.039062 199.4375 136.644531 199.511719 138.5 L 199.648438 141.875 L 199.699219 138.3125 C 199.746094 135.105469 199.691406 134.359375 199.453125 134.9375 M 141.628906 166.496094 C 133.609375 174.519531 133.398438 174.753906 133.867188 175.183594 C 134.328125 175.605469 134.332031 175.605469 134.003906 175.171875 C 133.691406 174.753906 134.371094 174.003906 141.832031 166.546875 L 150 158.375 L 158.167969 166.546875 C 165.628906 174.003906 166.308594 174.753906 165.996094 175.171875 C 165.667969 175.605469 165.671875 175.605469 166.132812 175.183594 C 166.601562 174.753906 166.390625 174.519531 158.371094 166.496094 C 153.835938 161.960938 150.070312 158.25 150 158.25 C 149.929688 158.25 146.164062 161.960938 141.628906 166.496094 M 149.5625 175.921875 C 149.804688 175.984375 150.195312 175.984375 150.4375 175.921875 C 150.679688 175.859375 150.480469 175.808594 150 175.808594 C 149.519531 175.808594 149.320312 175.859375 149.5625 175.921875 "/>
</g>
</svg>
