<svg id="svg" version="1.1" xmlns="http://www.w3.org/2000/svg" xmlns:xlink="http://www.w3.org/1999/xlink" width="400" height="400" viewBox="0, 0, 400,400"><g id="svgg"><path id="path0" d="M108.667 167.804 L 108.667 181.333 111.500 181.333 L 114.333 181.333 114.333 176.718 L 114.333 172.102 118.268 171.904 C 125.939 171.518,129.339 168.862,129.330 163.261 C 129.320 156.719,125.982 154.566,115.583 154.391 L 108.667 154.275 108.667 167.804 M133.333 167.804 L 133.333 181.333 136.167 181.333 L 139.000 181.333 139.000 176.718 L 139.000 172.102 142.935 171.904 C 150.606 171.518,154.005 168.862,153.997 163.261 C 153.987 156.719,150.648 154.566,140.250 154.391 L 133.333 154.275 133.333 167.804 M158.000 167.833 L 158.000 181.333 166.667 181.333 L 175.333 181.333 175.333 179.167 L 175.333 177.000 169.500 177.000 L 163.667 177.000 163.667 165.667 L 163.667 154.333 160.833 154.333 L 158.000 154.333 158.000 167.833 M186.447 155.083 C 186.550 155.496,187.846 161.308,189.328 168.000 C 190.810 174.692,192.103 180.429,192.201 180.750 C 192.351 181.245,192.800 181.333,195.157 181.333 L 197.936 181.333 200.032 172.667 C 201.184 167.900,202.211 164.000,202.314 164.001 C 202.416 164.001,203.374 167.639,204.442 172.084 C 205.510 176.530,206.458 180.429,206.548 180.750 C 206.831 181.758,212.257 181.606,212.496 180.583 C 212.593 180.171,213.868 174.433,215.329 167.833 C 216.790 161.233,218.066 155.496,218.166 155.083 C 218.342 154.351,218.281 154.333,215.546 154.333 L 212.745 154.333 211.691 159.917 C 209.605 170.964,209.198 172.976,209.076 172.854 C 209.008 172.785,208.059 168.853,206.967 164.115 C 205.875 159.377,204.901 155.237,204.802 154.917 C 204.653 154.435,204.222 154.333,202.333 154.333 C 200.444 154.333,200.014 154.435,199.866 154.917 C 199.768 155.237,198.781 159.389,197.673 164.143 C 196.565 168.897,195.607 172.838,195.543 172.901 C 195.480 172.964,194.951 170.500,194.368 167.425 C 193.784 164.349,192.982 160.146,192.585 158.083 L 191.863 154.333 189.062 154.333 C 186.324 154.333,186.265 154.350,186.447 155.083 M121.678 159.506 C 122.936 160.156,123.667 161.591,123.667 163.409 C 123.667 166.301,122.003 167.333,117.344 167.333 L 114.333 167.333 114.333 163.167 L 114.333 159.000 117.517 159.000 C 119.710 159.000,121.004 159.157,121.678 159.506 M146.344 159.506 C 147.602 160.156,148.333 161.591,148.333 163.409 C 148.333 166.301,146.669 167.333,142.011 167.333 L 139.000 167.333 139.000 163.167 L 139.000 159.000 142.183 159.000 C 144.377 159.000,145.670 159.157,146.344 159.506 M224.732 161.632 C 222.233 162.496,220.000 164.866,220.000 166.656 C 220.000 167.580,224.910 167.039,225.949 166.000 C 228.076 163.873,231.333 165.146,231.333 168.105 C 231.333 168.886,231.244 168.914,228.221 169.072 C 222.301 169.382,219.833 171.281,219.833 175.526 C 219.833 180.600,225.978 183.593,230.208 180.579 L 231.500 179.659 231.681 180.413 C 231.848 181.111,232.068 181.174,234.640 181.264 C 237.406 181.361,237.417 181.358,237.162 180.598 C 237.022 180.177,236.815 176.683,236.703 172.833 C 236.485 165.326,236.425 165.052,234.552 163.074 C 232.653 161.068,228.242 160.420,224.732 161.632 M248.167 161.605 C 247.617 161.946,246.942 162.498,246.667 162.831 C 246.195 163.403,246.157 163.382,245.998 162.469 C 245.830 161.508,245.808 161.499,243.248 161.403 L 240.667 161.305 240.667 171.319 L 240.667 181.333 243.333 181.333 L 246.000 181.333 246.000 174.852 C 246.000 166.876,246.110 166.631,249.802 166.396 L 252.027 166.254 251.930 163.710 L 251.833 161.167 250.500 161.076 C 249.647 161.018,248.807 161.208,248.167 161.605 M258.103 161.844 C 251.833 164.969,252.093 178.136,258.481 181.038 C 260.792 182.088,264.001 181.674,265.738 180.102 C 266.307 179.587,266.333 179.772,266.333 184.282 L 266.333 189.000 269.000 189.000 L 271.667 189.000 271.667 175.167 L 271.667 161.333 269.325 161.333 L 266.983 161.333 266.780 162.349 L 266.577 163.365 265.867 162.699 C 263.915 160.865,260.764 160.518,258.103 161.844 M280.113 161.459 C 272.672 163.892,273.993 171.283,282.209 173.189 C 285.977 174.062,287.187 175.072,286.348 176.639 C 285.291 178.615,280.000 177.761,280.000 175.615 C 280.000 175.068,279.703 175.000,277.333 175.000 C 274.355 175.000,274.224 175.134,275.201 177.192 C 278.488 184.119,291.667 182.684,291.667 175.399 C 291.667 172.317,289.603 170.480,285.000 169.464 C 280.769 168.530,279.481 167.176,281.276 165.552 C 282.680 164.281,286.333 165.207,286.333 166.833 C 286.333 167.237,286.857 167.333,289.044 167.333 L 291.754 167.333 291.560 166.136 C 290.942 162.329,284.946 159.879,280.113 161.459 M265.521 166.353 C 266.299 167.084,266.333 167.295,266.333 171.333 C 266.333 176.235,265.970 176.936,263.271 177.238 C 259.915 177.613,257.979 173.191,259.345 168.271 C 260.119 165.486,263.485 164.440,265.521 166.353 M38.000 167.884 C 32.866 169.944,34.878 177.748,40.448 177.381 C 46.420 176.986,46.392 168.079,40.417 167.780 C 39.363 167.727,38.275 167.774,38.000 167.884 M358.000 167.884 C 352.866 169.944,354.878 177.748,360.448 177.381 C 366.420 176.986,366.392 168.079,360.417 167.780 C 359.363 167.727,358.275 167.774,358.000 167.884 M50.000 172.500 L 50.000 175.000 71.333 175.000 L 92.667 175.000 92.667 172.500 L 92.667 170.000 71.333 170.000 L 50.000 170.000 50.000 172.500 M307.333 172.500 L 307.333 175.000 328.667 175.000 L 350.000 175.000 350.000 172.500 L 350.000 170.000 328.667 170.000 L 307.333 170.000 307.333 172.500 M231.273 173.468 C 231.552 176.880,227.999 178.933,225.583 176.756 C 224.309 175.607,225.271 172.905,227.093 172.517 C 227.500 172.430,228.133 172.292,228.500 172.211 C 230.443 171.778,231.162 172.104,231.273 173.468 M189.034 222.132 L 178.239 232.931 178.937 233.912 C 180.550 236.177,179.823 236.672,190.355 226.145 L 200.000 216.504 209.645 226.145 C 220.177 236.672,219.450 236.177,221.063 233.912 L 221.761 232.931 210.966 222.132 C 205.028 216.193,200.094 211.333,200.000 211.333 C 199.906 211.333,194.972 216.193,189.034 222.132 M191.414 228.419 L 183.000 236.838 183.000 244.095 L 183.000 251.352 187.750 251.259 L 192.500 251.167 192.667 245.167 C 192.828 239.362,192.862 239.125,193.710 237.899 C 196.355 234.072,201.254 233.322,204.646 236.226 C 206.987 238.230,207.146 238.769,207.333 245.333 L 207.500 251.167 212.250 251.259 L 217.000 251.352 217.000 244.095 L 217.000 236.838 208.586 228.419 C 203.958 223.789,200.094 220.000,200.000 220.000 C 199.906 220.000,196.042 223.789,191.414 228.419 " stroke="none" fill="#ececec" fill-rule="evenodd"></path><path id="path1" d="M251.995 162.932 L 252.156 164.833 252.265 163.203 C 252.325 162.307,252.252 161.452,252.103 161.302 C 251.955 161.153,251.906 161.887,251.995 162.932 M129.417 163.167 C 129.421 163.900,129.489 164.161,129.569 163.746 C 129.649 163.331,129.646 162.731,129.562 162.413 C 129.479 162.094,129.414 162.433,129.417 163.167 M154.084 163.167 C 154.088 163.900,154.156 164.161,154.236 163.746 C 154.315 163.331,154.312 162.731,154.229 162.413 C 154.146 162.094,154.080 162.433,154.084 163.167 M291.667 166.944 C 291.667 167.204,290.751 167.356,288.917 167.400 L 286.167 167.467 288.802 167.582 C 291.239 167.688,292.479 167.368,291.894 166.783 C 291.769 166.658,291.667 166.731,291.667 166.944 M231.077 168.000 C 231.077 168.642,231.146 168.904,231.230 168.583 C 231.314 168.262,231.314 167.737,231.230 167.417 C 231.146 167.096,231.077 167.358,231.077 168.000 M266.131 171.333 C 266.131 173.808,266.183 174.821,266.247 173.583 C 266.311 172.346,266.311 170.321,266.247 169.083 C 266.183 167.846,266.131 168.858,266.131 171.333 M39.417 167.563 C 39.737 167.647,40.262 167.647,40.583 167.563 C 40.904 167.479,40.642 167.411,40.000 167.411 C 39.358 167.411,39.096 167.479,39.417 167.563 M359.417 167.563 C 359.738 167.647,360.262 167.647,360.583 167.563 C 360.904 167.479,360.642 167.411,360.000 167.411 C 359.358 167.411,359.096 167.479,359.417 167.563 M246.140 174.833 C 246.140 178.500,246.188 180.045,246.248 178.268 C 246.308 176.490,246.308 173.490,246.249 171.601 C 246.189 169.712,246.140 171.167,246.140 174.833 M253.437 171.167 C 253.438 172.267,253.501 172.676,253.575 172.077 C 253.649 171.478,253.648 170.578,253.572 170.077 C 253.495 169.576,253.435 170.067,253.437 171.167 M229.983 172.187 C 230.891 172.359,230.976 172.500,231.096 174.022 L 231.225 175.670 231.196 173.919 C 231.167 172.188,231.153 172.166,230.083 172.083 C 229.046 172.004,229.042 172.008,229.983 172.187 M291.751 175.500 C 291.754 176.233,291.823 176.494,291.902 176.079 C 291.982 175.665,291.979 175.065,291.896 174.746 C 291.812 174.427,291.747 174.767,291.751 175.500 M275.925 174.911 C 276.709 174.982,277.909 174.981,278.592 174.909 C 279.275 174.837,278.633 174.780,277.167 174.781 C 275.700 174.782,275.141 174.841,275.925 174.911 M169.402 176.916 L 175.303 177.015 175.420 179.258 L 175.536 181.500 175.601 179.083 L 175.667 176.667 169.583 176.742 L 163.500 176.817 169.402 176.916 M255.333 178.771 C 255.333 178.828,255.821 179.316,256.417 179.854 L 257.500 180.833 256.521 179.750 C 255.608 178.740,255.333 178.513,255.333 178.771 M265.936 179.917 C 265.880 180.054,265.915 182.192,266.015 184.667 L 266.196 189.167 266.265 184.417 C 266.326 180.141,266.254 179.146,265.936 179.917 M188.838 221.995 C 178.146 232.691,177.865 233.006,178.489 233.578 C 179.104 234.142,179.111 234.142,178.672 233.560 C 178.254 233.007,179.162 232.006,189.107 222.061 L 200.000 211.168 210.893 222.061 C 220.838 232.006,221.746 233.007,221.328 233.560 C 220.889 234.142,220.896 234.142,221.511 233.578 C 222.135 233.006,221.854 232.691,211.162 221.995 C 205.116 215.948,200.094 211.000,200.000 211.000 C 199.906 211.000,194.884 215.948,188.838 221.995 M199.417 234.563 C 199.737 234.647,200.262 234.647,200.583 234.563 C 200.904 234.479,200.642 234.411,200.000 234.411 C 199.358 234.411,199.096 234.479,199.417 234.563 " stroke="none" fill="#f0ecec" fill-rule="evenodd"></path><path id="path2" d="M251.995 162.932 L 252.156 164.833 252.265 163.203 C 252.325 162.307,252.252 161.452,252.103 161.302 C 251.955 161.153,251.906 161.887,251.995 162.932 M129.417 163.167 C 129.421 163.900,129.489 164.161,129.569 163.746 C 129.649 163.331,129.646 162.731,129.562 162.413 C 129.479 162.094,129.414 162.433,129.417 163.167 M154.084 163.167 C 154.088 163.900,154.156 164.161,154.236 163.746 C 154.315 163.331,154.312 162.731,154.229 162.413 C 154.146 162.094,154.080 162.433,154.084 163.167 M291.667 166.944 C 291.667 167.204,290.751 167.356,288.917 167.400 L 286.167 167.467 288.802 167.582 C 291.239 167.688,292.479 167.368,291.894 166.783 C 291.769 166.658,291.667 166.731,291.667 166.944 M231.077 168.000 C 231.077 168.642,231.146 168.904,231.230 168.583 C 231.314 168.262,231.314 167.737,231.230 167.417 C 231.146 167.096,231.077 167.358,231.077 168.000 M266.131 171.333 C 266.131 173.808,266.183 174.821,266.247 173.583 C 266.311 172.346,266.311 170.321,266.247 169.083 C 266.183 167.846,266.131 168.858,266.131 171.333 M39.417 167.563 C 39.737 167.647,40.262 167.647,40.583 167.563 C 40.904 167.479,40.642 167.411,40.000 167.411 C 39.358 167.411,39.096 167.479,39.417 167.563 M359.417 167.563 C 359.738 167.647,360.262 167.647,360.583 167.563 C 360.904 167.479,360.642 167.411,360.000 167.411 C 359.358 167.411,359.096 167.479,359.417 167.563 M246.140 174.833 C 246.140 178.500,246.188 180.045,246.248 178.268 C 246.308 176.490,246.308 173.490,246.249 171.601 C 246.189 169.712,246.140 171.167,246.140 174.833 M253.437 171.167 C 253.438 172.267,253.501 172.676,253.575 172.077 C 253.649 171.478,253.648 170.578,253.572 170.077 C 253.495 169.576,253.435 170.067,253.437 171.167 M229.983 172.187 C 230.891 172.359,230.976 172.500,231.096 174.022 L 231.225 175.670 231.196 173.919 C 231.167 172.188,231.153 172.166,230.083 172.083 C 229.046 172.004,229.042 172.008,229.983 172.187 M291.751 175.500 C 291.754 176.233,291.823 176.494,291.902 176.079 C 291.982 175.665,291.979 175.065,291.896 174.746 C 291.812 174.427,291.747 174.767,291.751 175.500 M275.925 174.911 C 276.709 174.982,277.909 174.981,278.592 174.909 C 279.275 174.837,278.633 174.780,277.167 174.781 C 275.700 174.782,275.141 174.841,275.925 174.911 M169.402 176.916 L 175.303 177.015 175.420 179.258 L 175.536 181.500 175.601 179.083 L 175.667 176.667 169.583 176.742 L 163.500 176.817 169.402 176.916 M255.333 178.771 C 255.333 178.828,255.821 179.316,256.417 179.854 L 257.500 180.833 256.521 179.750 C 255.608 178.740,255.333 178.513,255.333 178.771 M265.936 179.917 C 265.880 180.054,265.915 182.192,266.015 184.667 L 266.196 189.167 266.265 184.417 C 266.326 180.141,266.254 179.146,265.936 179.917 M188.838 221.995 C 178.146 232.691,177.865 233.006,178.489 233.578 C 179.104 234.142,179.111 234.142,178.672 233.560 C 178.254 233.007,179.162 232.006,189.107 222.061 L 200.000 211.168 210.893 222.061 C 220.838 232.006,221.746 233.007,221.328 233.560 C 220.889 234.142,220.896 234.142,221.511 233.578 C 222.135 233.006,221.854 232.691,211.162 221.995 C 205.116 215.948,200.094 211.000,200.000 211.000 C 199.906 211.000,194.884 215.948,188.838 221.995 M199.417 234.563 C 199.737 234.647,200.262 234.647,200.583 234.563 C 200.904 234.479,200.642 234.411,200.000 234.411 C 199.358 234.411,199.096 234.479,199.417 234.563 " stroke="none" fill="#f0ecec" fill-rule="evenodd"></path><path id="path3" d="M251.995 162.932 L 252.156 164.833 252.265 163.203 C 252.325 162.307,252.252 161.452,252.103 161.302 C 251.955 161.153,251.906 161.887,251.995 162.932 M129.417 163.167 C 129.421 163.900,129.489 164.161,129.569 163.746 C 129.649 163.331,129.646 162.731,129.562 162.413 C 129.479 162.094,129.414 162.433,129.417 163.167 M154.084 163.167 C 154.088 163.900,154.156 164.161,154.236 163.746 C 154.315 163.331,154.312 162.731,154.229 162.413 C 154.146 162.094,154.080 162.433,154.084 163.167 M291.667 166.944 C 291.667 167.204,290.751 167.356,288.917 167.400 L 286.167 167.467 288.802 167.582 C 291.239 167.688,292.479 167.368,291.894 166.783 C 291.769 166.658,291.667 166.731,291.667 166.944 M231.077 168.000 C 231.077 168.642,231.146 168.904,231.230 168.583 C 231.314 168.262,231.314 167.737,231.230 167.417 C 231.146 167.096,231.077 167.358,231.077 168.000 M266.131 171.333 C 266.131 173.808,266.183 174.821,266.247 173.583 C 266.311 172.346,266.311 170.321,266.247 169.083 C 266.183 167.846,266.131 168.858,266.131 171.333 M39.417 167.563 C 39.737 167.647,40.262 167.647,40.583 167.563 C 40.904 167.479,40.642 167.411,40.000 167.411 C 39.358 167.411,39.096 167.479,39.417 167.563 M359.417 167.563 C 359.738 167.647,360.262 167.647,360.583 167.563 C 360.904 167.479,360.642 167.411,360.000 167.411 C 359.358 167.411,359.096 167.479,359.417 167.563 M246.140 174.833 C 246.140 178.500,246.188 180.045,246.248 178.268 C 246.308 176.490,246.308 173.490,246.249 171.601 C 246.189 169.712,246.140 171.167,246.140 174.833 M253.437 171.167 C 253.438 172.267,253.501 172.676,253.575 172.077 C 253.649 171.478,253.648 170.578,253.572 170.077 C 253.495 169.576,253.435 170.067,253.437 171.167 M229.983 172.187 C 230.891 172.359,230.976 172.500,231.096 174.022 L 231.225 175.670 231.196 173.919 C 231.167 172.188,231.153 172.166,230.083 172.083 C 229.046 172.004,229.042 172.008,229.983 172.187 M291.751 175.500 C 291.754 176.233,291.823 176.494,291.902 176.079 C 291.982 175.665,291.979 175.065,291.896 174.746 C 291.812 174.427,291.747 174.767,291.751 175.500 M275.925 174.911 C 276.709 174.982,277.909 174.981,278.592 174.909 C 279.275 174.837,278.633 174.780,277.167 174.781 C 275.700 174.782,275.141 174.841,275.925 174.911 M169.402 176.916 L 175.303 177.015 175.420 179.258 L 175.536 181.500 175.601 179.083 L 175.667 176.667 169.583 176.742 L 163.500 176.817 169.402 176.916 M255.333 178.771 C 255.333 178.828,255.821 179.316,256.417 179.854 L 257.500 180.833 256.521 179.750 C 255.608 178.740,255.333 178.513,255.333 178.771 M265.936 179.917 C 265.880 180.054,265.915 182.192,266.015 184.667 L 266.196 189.167 266.265 184.417 C 266.326 180.141,266.254 179.146,265.936 179.917 M188.838 221.995 C 178.146 232.691,177.865 233.006,178.489 233.578 C 179.104 234.142,179.111 234.142,178.672 233.560 C 178.254 233.007,179.162 232.006,189.107 222.061 L 200.000 211.168 210.893 222.061 C 220.838 232.006,221.746 233.007,221.328 233.560 C 220.889 234.142,220.896 234.142,221.511 233.578 C 222.135 233.006,221.854 232.691,211.162 221.995 C 205.116 215.948,200.094 211.000,200.000 211.000 C 199.906 211.000,194.884 215.948,188.838 221.995 M199.417 234.563 C 199.737 234.647,200.262 234.647,200.583 234.563 C 200.904 234.479,200.642 234.411,200.000 234.411 C 199.358 234.411,199.096 234.479,199.417 234.563 " stroke="none" fill="#f0ecec" fill-rule="evenodd"></path><path id="path4" d="M251.995 162.932 L 252.156 164.833 252.265 163.203 C 252.325 162.307,252.252 161.452,252.103 161.302 C 251.955 161.153,251.906 161.887,251.995 162.932 M129.417 163.167 C 129.421 163.900,129.489 164.161,129.569 163.746 C 129.649 163.331,129.646 162.731,129.562 162.413 C 129.479 162.094,129.414 162.433,129.417 163.167 M154.084 163.167 C 154.088 163.900,154.156 164.161,154.236 163.746 C 154.315 163.331,154.312 162.731,154.229 162.413 C 154.146 162.094,154.080 162.433,154.084 163.167 M291.667 166.944 C 291.667 167.204,290.751 167.356,288.917 167.400 L 286.167 167.467 288.802 167.582 C 291.239 167.688,292.479 167.368,291.894 166.783 C 291.769 166.658,291.667 166.731,291.667 166.944 M231.077 168.000 C 231.077 168.642,231.146 168.904,231.230 168.583 C 231.314 168.262,231.314 167.737,231.230 167.417 C 231.146 167.096,231.077 167.358,231.077 168.000 M266.131 171.333 C 266.131 173.808,266.183 174.821,266.247 173.583 C 266.311 172.346,266.311 170.321,266.247 169.083 C 266.183 167.846,266.131 168.858,266.131 171.333 M39.417 167.563 C 39.737 167.647,40.262 167.647,40.583 167.563 C 40.904 167.479,40.642 167.411,40.000 167.411 C 39.358 167.411,39.096 167.479,39.417 167.563 M359.417 167.563 C 359.738 167.647,360.262 167.647,360.583 167.563 C 360.904 167.479,360.642 167.411,360.000 167.411 C 359.358 167.411,359.096 167.479,359.417 167.563 M246.140 174.833 C 246.140 178.500,246.188 180.045,246.248 178.268 C 246.308 176.490,246.308 173.490,246.249 171.601 C 246.189 169.712,246.140 171.167,246.140 174.833 M253.437 171.167 C 253.438 172.267,253.501 172.676,253.575 172.077 C 253.649 171.478,253.648 170.578,253.572 170.077 C 253.495 169.576,253.435 170.067,253.437 171.167 M229.983 172.187 C 230.891 172.359,230.976 172.500,231.096 174.022 L 231.225 175.670 231.196 173.919 C 231.167 172.188,231.153 172.166,230.083 172.083 C 229.046 172.004,229.042 172.008,229.983 172.187 M291.751 175.500 C 291.754 176.233,291.823 176.494,291.902 176.079 C 291.982 175.665,291.979 175.065,291.896 174.746 C 291.812 174.427,291.747 174.767,291.751 175.500 M275.925 174.911 C 276.709 174.982,277.909 174.981,278.592 174.909 C 279.275 174.837,278.633 174.780,277.167 174.781 C 275.700 174.782,275.141 174.841,275.925 174.911 M169.402 176.916 L 175.303 177.015 175.420 179.258 L 175.536 181.500 175.601 179.083 L 175.667 176.667 169.583 176.742 L 163.500 176.817 169.402 176.916 M255.333 178.771 C 255.333 178.828,255.821 179.316,256.417 179.854 L 257.500 180.833 256.521 179.750 C 255.608 178.740,255.333 178.513,255.333 178.771 M265.936 179.917 C 265.880 180.054,265.915 182.192,266.015 184.667 L 266.196 189.167 266.265 184.417 C 266.326 180.141,266.254 179.146,265.936 179.917 M188.838 221.995 C 178.146 232.691,177.865 233.006,178.489 233.578 C 179.104 234.142,179.111 234.142,178.672 233.560 C 178.254 233.007,179.162 232.006,189.107 222.061 L 200.000 211.168 210.893 222.061 C 220.838 232.006,221.746 233.007,221.328 233.560 C 220.889 234.142,220.896 234.142,221.511 233.578 C 222.135 233.006,221.854 232.691,211.162 221.995 C 205.116 215.948,200.094 211.000,200.000 211.000 C 199.906 211.000,194.884 215.948,188.838 221.995 M199.417 234.563 C 199.737 234.647,200.262 234.647,200.583 234.563 C 200.904 234.479,200.642 234.411,200.000 234.411 C 199.358 234.411,199.096 234.479,199.417 234.563 " stroke="none" fill="#f0ecec" fill-rule="evenodd"></path></g></svg>